<svg width="100" height="100" viewBox="0 0 100 100" fill="none" xmlns="http://www.w3.org/2000/svg">
  <rect width="100" height="100" rx="22" fill="#FFFFFF"/>
  <g transform="translate(18 20) scale(0.07207)">
    <path d="M346.208 98.2009C346.208 152.436 390.494 196.402 445.124 196.402C499.754 196.402 544.041 152.436 544.041 98.2009C544.041 43.966 499.754 0 445.124 0C390.494 0 346.208 43.966 346.208 98.2009Z" fill="#F26530"/>
    <path d="M365.318 830.244V533.409C352.537 465.905 329.961 445.804 269.773 432.977H188.842L1.23978e-05 243.27H286.634C367.863 248.049 445.227 283.844 496.83 357.332V243.27H888L696.911 432.977H535.425C555.049 488.067 564.152 556.096 558.654 638.306L365.318 830.244Z" fill="#F26530"/>
  </g>
</svg>
