<svg width="888" height="1131" viewBox="0 0 888 1131" fill="none" xmlns="http://www.w3.org/2000/svg">
<path d="M346.208 98.2009C346.208 152.436 390.494 196.402 445.124 196.402C499.754 196.402 544.041 152.436 544.041 98.2009C544.041 43.966 499.754 0 445.124 0C390.494 0 346.208 43.966 346.208 98.2009Z" fill="#F26530"/>
<path d="M365.318 830.244V533.409C352.537 465.905 329.961 445.804 269.773 432.977H188.842L1.23978e-05 243.27H286.634C367.863 248.049 445.227 283.844 496.83 357.332V243.27H888L696.911 432.977H535.425C555.049 488.067 564.152 556.096 558.654 638.306L365.318 830.244Z" fill="#F26530"/>
<path d="M174.088 1092.24H151.63V980.886H106.712V960.298H219.006V980.886H174.088V1092.24ZM252.228 993.051C264.705 993.051 274.5 996.981 281.612 1004.84C288.848 1012.58 292.467 1023.49 292.467 1037.59V1092.24H276.558L272.067 1076.9C269.322 1081.51 265.266 1085.57 259.901 1089.06C254.536 1092.43 248.173 1094.12 240.811 1094.12C234.323 1094.12 228.459 1092.81 223.219 1090.19C218.103 1087.56 214.11 1083.88 211.241 1079.14C208.371 1074.4 206.936 1069.04 206.936 1063.05C206.936 1053.81 210.554 1046.45 217.791 1040.96C225.153 1035.35 235.82 1032.54 249.795 1032.54H270.756C270.257 1026.05 268.261 1020.94 264.767 1017.19C261.399 1013.33 256.844 1011.39 251.105 1011.39C246.488 1011.39 242.496 1012.52 239.127 1014.76C235.758 1017.01 233.263 1019.75 231.641 1023L211.802 1019.63C214.173 1011.39 219.039 1004.9 226.4 1000.16C233.887 995.421 242.496 993.051 252.228 993.051ZM245.865 1075.96C253.351 1075.96 259.402 1073.53 264.019 1068.66C268.635 1063.8 270.944 1057.37 270.944 1049.38H250.543C235.945 1049.38 228.646 1053.63 228.646 1062.11C228.646 1066.35 230.206 1069.72 233.325 1072.22C236.444 1074.71 240.624 1075.96 245.865 1075.96ZM336.403 1092.24H314.88V960.298H336.403V1092.24ZM399.453 993.051C411.93 993.051 421.725 996.981 428.837 1004.84C436.073 1012.58 439.692 1023.49 439.692 1037.59V1092.24H423.783L419.292 1076.9C416.547 1081.51 412.492 1085.57 407.126 1089.06C401.761 1092.43 395.398 1094.12 388.036 1094.12C381.548 1094.12 375.684 1092.81 370.444 1090.19C365.328 1087.56 361.335 1083.88 358.466 1079.14C355.596 1074.4 354.161 1069.04 354.161 1063.05C354.161 1053.81 357.779 1046.45 365.016 1040.96C372.378 1035.35 383.046 1032.54 397.02 1032.54H417.982C417.482 1026.05 415.486 1020.94 411.993 1017.19C408.624 1013.33 404.07 1011.39 398.33 1011.39C393.714 1011.39 389.721 1012.52 386.352 1014.76C382.983 1017.01 380.488 1019.75 378.866 1023L359.027 1019.63C361.398 1011.39 366.264 1004.9 373.625 1000.16C381.112 995.421 389.721 993.051 399.453 993.051ZM393.09 1075.96C400.576 1075.96 406.627 1073.53 411.244 1068.66C415.86 1063.8 418.169 1057.37 418.169 1049.38H397.769C383.17 1049.38 375.871 1053.63 375.871 1062.11C375.871 1066.35 377.431 1069.72 380.55 1072.22C383.669 1074.71 387.849 1075.96 393.09 1075.96ZM461.169 1092.24V994.922H477.265L481.57 1009.52C484.689 1004.4 488.806 1000.41 493.922 997.543C499.162 994.548 504.777 993.051 510.766 993.051C517.753 993.051 524.054 994.798 529.669 998.291C535.284 1001.78 539.713 1006.59 542.957 1012.7C546.201 1018.82 547.823 1025.74 547.823 1033.48V1092.24H526.3V1035.91C526.3 1028.92 524.304 1023.25 520.311 1018.88C516.318 1014.51 511.203 1012.33 504.964 1012.33C498.476 1012.33 493.111 1014.57 488.869 1019.07C484.751 1023.43 482.692 1029.05 482.692 1035.91V1092.24H461.169ZM627.344 1073.53L625.473 1092.24H607.318C596.713 1092.24 588.665 1089.75 583.175 1084.76C577.685 1079.64 574.94 1072.28 574.94 1062.67V1013.64H559.032V994.922H574.94L580.368 966.849H596.463V994.922H625.473V1013.64H596.463V1062.67C596.463 1069.91 600.082 1073.53 607.318 1073.53H627.344ZM664.849 1092.24H643.326V960.298H664.849V1092.24ZM757.469 994.922H779.367L739.502 1104.41C736.133 1113.64 731.766 1120.32 726.401 1124.43C721.161 1128.55 714.111 1130.61 705.253 1130.61H690.467L688.596 1110.96H706.75C710.368 1110.96 713.113 1110.15 714.985 1108.53C716.981 1107.03 718.666 1104.35 720.038 1100.48L721.161 1097.48L677.928 994.922H700.948L729.583 1065.11H732.578L757.469 994.922Z" fill="black"/>
</svg>
