<svg width="260" height="243" viewBox="0 0 260 243" fill="none" xmlns="http://www.w3.org/2000/svg">
<path d="M101.036 28.6586C101.036 44.4863 113.96 57.3172 129.904 57.3172C145.847 57.3172 158.771 44.4863 158.771 28.6586C158.771 12.8309 145.847 0 129.904 0C113.96 0 101.036 12.8309 101.036 28.6586Z" fill="#F26530"/>
<path d="M106.613 242.296V155.668C102.883 135.968 96.2947 130.102 78.7297 126.358H55.1109L0 70.9952H83.6502C107.356 72.3898 129.934 82.8362 144.993 104.282V70.9952H259.151L203.384 126.358H156.257C161.984 142.436 164.64 162.289 163.036 186.281L106.613 242.296Z" fill="#F26530"/>
</svg>
