<svg width="1002" height="243" viewBox="0 0 1002 243" fill="none" xmlns="http://www.w3.org/2000/svg">
<path d="M396.501 191.497H374.042V80.1388H329.125V59.5515H441.419V80.1388H396.501V191.497Z" fill="white"/>
<path d="M474.641 92.304C487.118 92.304 496.912 96.2343 504.024 104.095C511.261 111.831 514.879 122.748 514.879 136.847V191.497H498.971L494.479 176.15C491.734 180.767 487.679 184.822 482.314 188.315C476.949 191.684 470.586 193.369 463.224 193.369C456.736 193.369 450.872 192.059 445.631 189.438C440.516 186.818 436.523 183.137 433.653 178.396C430.784 173.655 429.349 168.29 429.349 162.301C429.349 153.068 432.967 145.706 440.204 140.216C447.565 134.601 458.233 131.794 472.208 131.794H493.169C492.67 125.306 490.674 120.19 487.18 116.447C483.811 112.579 479.257 110.645 473.518 110.645C468.901 110.645 464.909 111.768 461.54 114.014C458.171 116.26 455.675 119.005 454.053 122.249L434.215 118.88C436.585 110.645 441.452 104.157 448.813 99.4159C456.299 94.6746 464.909 92.304 474.641 92.304ZM468.277 175.214C475.764 175.214 481.815 172.781 486.432 167.915C491.048 163.049 493.356 156.624 493.356 148.638H472.956C458.358 148.638 451.059 152.88 451.059 161.365C451.059 165.607 452.619 168.976 455.738 171.471C458.857 173.967 463.037 175.214 468.277 175.214Z" fill="white"/>
<path d="M558.816 191.497H537.293V59.5515H558.816V191.497Z" fill="white"/>
<path d="M621.866 92.304C634.343 92.304 644.137 96.2343 651.249 104.095C658.486 111.831 662.105 122.748 662.105 136.847V191.497H646.196L641.704 176.15C638.96 180.767 634.904 184.822 629.539 188.315C624.174 191.684 617.811 193.369 610.449 193.369C603.961 193.369 598.097 192.059 592.857 189.438C587.741 186.818 583.748 183.137 580.878 178.396C578.009 173.655 576.574 168.29 576.574 162.301C576.574 153.068 580.192 145.706 587.429 140.216C594.79 134.601 605.458 131.794 619.433 131.794H640.394C639.895 125.306 637.899 120.19 634.405 116.447C631.037 112.579 626.482 110.645 620.743 110.645C616.126 110.645 612.134 111.768 608.765 114.014C605.396 116.26 602.901 119.005 601.279 122.249L581.44 118.88C583.811 110.645 588.677 104.157 596.038 99.4159C603.524 94.6746 612.134 92.304 621.866 92.304ZM615.503 175.214C622.989 175.214 629.04 172.781 633.657 167.915C638.273 163.049 640.581 156.624 640.581 148.638H620.181C605.583 148.638 598.284 152.88 598.284 161.365C598.284 165.607 599.844 168.976 602.963 171.471C606.082 173.967 610.262 175.214 615.503 175.214Z" fill="white"/>
<path d="M683.582 191.497V94.1755H699.678L703.982 108.774C707.102 103.658 711.219 99.6655 716.335 96.7957C721.575 93.8012 727.19 92.304 733.179 92.304C740.166 92.304 746.467 94.0508 752.082 97.5443C757.696 101.038 762.126 105.842 765.37 111.955C768.614 118.069 770.236 124.994 770.236 132.73V191.497H748.713V135.163C748.713 128.176 746.716 122.499 742.724 118.132C738.731 113.765 733.616 111.581 727.377 111.581C720.889 111.581 715.524 113.827 711.281 118.319C707.164 122.686 705.105 128.3 705.105 135.163V191.497H683.582Z" fill="white"/>
<path d="M849.757 172.781L847.885 191.497H829.731C819.126 191.497 811.078 189.002 805.588 184.011C800.098 178.895 797.353 171.534 797.353 161.926V112.891H781.445V94.1755H797.353L802.781 66.102H818.876V94.1755H847.885V112.891H818.876V161.926C818.876 169.163 822.495 172.781 829.731 172.781H849.757Z" fill="white"/>
<path d="M887.261 191.497H865.738V59.5515H887.261V191.497Z" fill="white"/>
<path d="M979.882 94.1755H1001.78L961.915 203.662C958.546 212.895 954.179 219.571 948.814 223.688C943.574 227.805 936.524 229.864 927.665 229.864H912.88L911.008 210.213H929.163C932.781 210.213 935.526 209.402 937.398 207.78C939.394 206.282 941.078 203.6 942.451 199.732L943.574 196.737L900.341 94.1755H923.361L951.996 164.359H954.99L979.882 94.1755Z" fill="white"/>
<path d="M101.036 28.6586C101.036 44.4863 113.96 57.3172 129.904 57.3172C145.847 57.3172 158.771 44.4863 158.771 28.6586C158.771 12.8309 145.847 0 129.904 0C113.96 0 101.036 12.8309 101.036 28.6586Z" fill="#F26530"/>
<path d="M106.613 242.296V155.668C102.883 135.968 96.2947 130.102 78.7297 126.358H55.1109L0 70.9952H83.6502C107.356 72.3898 129.934 82.8362 144.993 104.282V70.9952H259.151L203.384 126.358H156.257C161.984 142.436 164.64 162.289 163.036 186.281L106.613 242.296Z" fill="#F26530"/>
</svg>
